<mxfile host="app.diagrams.net" modified="2023-04-04T09:32:42.642Z" agent="5.0 (Windows NT 10.0; Win64; x64) AppleWebKit/537.36 (KHTML, like Gecko) Chrome/111.0.0.0 Safari/537.36" version="20.8.0" etag="Z7T3M-Fi_oubBrEFcl_o" type="github">
  <diagram id="N-oldStWZRKUiPiEWezZ" name="Page-1">
    <mxGraphModel dx="1221" dy="668" grid="1" gridSize="10" guides="1" tooltips="1" connect="1" arrows="1" fold="1" page="1" pageScale="1" pageWidth="827" pageHeight="1169" math="0" shadow="0">
      <root>
        <mxCell id="0" />
        <mxCell id="1" parent="0" />
        <mxCell id="LZj8jDyfkV4xVc5O8LT3-1" style="edgeStyle=orthogonalEdgeStyle;rounded=0;orthogonalLoop=1;jettySize=auto;html=1;exitX=0.5;exitY=1;exitDx=0;exitDy=0;entryX=0.453;entryY=0.003;entryDx=0;entryDy=0;entryPerimeter=0;" edge="1" parent="1" source="LZj8jDyfkV4xVc5O8LT3-2">
          <mxGeometry relative="1" as="geometry">
            <mxPoint x="105.59999999999991" y="190.60000000000002" as="targetPoint" />
          </mxGeometry>
        </mxCell>
        <mxCell id="LZj8jDyfkV4xVc5O8LT3-2" value="CreateReview" style="rounded=0;whiteSpace=wrap;html=1;" vertex="1" parent="1">
          <mxGeometry x="40" y="110" width="130" height="40" as="geometry" />
        </mxCell>
        <mxCell id="LZj8jDyfkV4xVc5O8LT3-3" style="edgeStyle=orthogonalEdgeStyle;rounded=0;orthogonalLoop=1;jettySize=auto;html=1;exitX=0.5;exitY=1;exitDx=0;exitDy=0;" edge="1" parent="1" source="LZj8jDyfkV4xVc5O8LT3-4">
          <mxGeometry relative="1" as="geometry">
            <mxPoint x="414" y="190" as="targetPoint" />
          </mxGeometry>
        </mxCell>
        <mxCell id="LZj8jDyfkV4xVc5O8LT3-4" value="EditReview" style="rounded=0;whiteSpace=wrap;html=1;" vertex="1" parent="1">
          <mxGeometry x="350" y="110" width="140" height="40" as="geometry" />
        </mxCell>
        <mxCell id="LZj8jDyfkV4xVc5O8LT3-5" style="edgeStyle=orthogonalEdgeStyle;rounded=0;orthogonalLoop=1;jettySize=auto;html=1;exitX=0.5;exitY=1;exitDx=0;exitDy=0;" edge="1" parent="1" source="LZj8jDyfkV4xVc5O8LT3-6">
          <mxGeometry relative="1" as="geometry">
            <mxPoint x="720" y="190" as="targetPoint" />
          </mxGeometry>
        </mxCell>
        <mxCell id="LZj8jDyfkV4xVc5O8LT3-6" value="CustomerChat" style="rounded=0;whiteSpace=wrap;html=1;" vertex="1" parent="1">
          <mxGeometry x="670" y="110" width="130" height="40" as="geometry" />
        </mxCell>
        <mxCell id="LZj8jDyfkV4xVc5O8LT3-7" style="edgeStyle=orthogonalEdgeStyle;rounded=0;orthogonalLoop=1;jettySize=auto;html=1;exitX=0;exitY=1;exitDx=0;exitDy=0;" edge="1" parent="1" source="LZj8jDyfkV4xVc5O8LT3-10" target="LZj8jDyfkV4xVc5O8LT3-2">
          <mxGeometry relative="1" as="geometry" />
        </mxCell>
        <mxCell id="LZj8jDyfkV4xVc5O8LT3-8" style="edgeStyle=orthogonalEdgeStyle;rounded=0;orthogonalLoop=1;jettySize=auto;html=1;exitX=0.5;exitY=1;exitDx=0;exitDy=0;" edge="1" parent="1" source="LZj8jDyfkV4xVc5O8LT3-10" target="LZj8jDyfkV4xVc5O8LT3-4">
          <mxGeometry relative="1" as="geometry" />
        </mxCell>
        <mxCell id="LZj8jDyfkV4xVc5O8LT3-9" style="edgeStyle=orthogonalEdgeStyle;rounded=0;orthogonalLoop=1;jettySize=auto;html=1;exitX=1;exitY=1;exitDx=0;exitDy=0;" edge="1" parent="1" source="LZj8jDyfkV4xVc5O8LT3-10" target="LZj8jDyfkV4xVc5O8LT3-6">
          <mxGeometry relative="1" as="geometry" />
        </mxCell>
        <mxCell id="LZj8jDyfkV4xVc5O8LT3-10" value="Review" style="rounded=0;whiteSpace=wrap;html=1;" vertex="1" parent="1">
          <mxGeometry x="300" y="10" width="224" height="50" as="geometry" />
        </mxCell>
        <mxCell id="LZj8jDyfkV4xVc5O8LT3-11" value="Input" style="swimlane;childLayout=stackLayout;horizontal=1;startSize=30;horizontalStack=0;rounded=1;fontSize=14;fontStyle=0;strokeWidth=2;resizeParent=0;resizeLast=1;shadow=0;dashed=0;align=center;" vertex="1" parent="1">
          <mxGeometry x="17.5" y="190" width="160" height="180" as="geometry" />
        </mxCell>
        <mxCell id="LZj8jDyfkV4xVc5O8LT3-12" value="int32 Rating&#xa;String Name&#xa;String Text" style="align=left;strokeColor=none;fillColor=none;spacingLeft=4;fontSize=12;verticalAlign=top;resizable=0;rotatable=0;part=1;" vertex="1" parent="LZj8jDyfkV4xVc5O8LT3-11">
          <mxGeometry y="30" width="160" height="150" as="geometry" />
        </mxCell>
        <mxCell id="LZj8jDyfkV4xVc5O8LT3-13" value="Input" style="swimlane;childLayout=stackLayout;horizontal=1;startSize=30;horizontalStack=0;rounded=1;fontSize=14;fontStyle=0;strokeWidth=2;resizeParent=0;resizeLast=1;shadow=0;dashed=0;align=center;" vertex="1" parent="1">
          <mxGeometry x="340" y="190" width="160" height="170" as="geometry" />
        </mxCell>
        <mxCell id="LZj8jDyfkV4xVc5O8LT3-14" value="int32 Review ID7&#xa;String Text" style="align=left;strokeColor=none;fillColor=none;spacingLeft=4;fontSize=12;verticalAlign=top;resizable=0;rotatable=0;part=1;" vertex="1" parent="LZj8jDyfkV4xVc5O8LT3-13">
          <mxGeometry y="30" width="160" height="140" as="geometry" />
        </mxCell>
        <mxCell id="LZj8jDyfkV4xVc5O8LT3-15" value="Input" style="swimlane;childLayout=stackLayout;horizontal=1;startSize=30;horizontalStack=0;rounded=1;fontSize=14;fontStyle=0;strokeWidth=2;resizeParent=0;resizeLast=1;shadow=0;dashed=0;align=center;" vertex="1" parent="1">
          <mxGeometry x="650" y="190" width="160" height="170" as="geometry" />
        </mxCell>
        <mxCell id="LZj8jDyfkV4xVc5O8LT3-16" value="int32 ResID&#xa;String Message" style="align=left;strokeColor=none;fillColor=none;spacingLeft=4;fontSize=12;verticalAlign=top;resizable=0;rotatable=0;part=1;" vertex="1" parent="LZj8jDyfkV4xVc5O8LT3-15">
          <mxGeometry y="30" width="160" height="140" as="geometry" />
        </mxCell>
        <mxCell id="LZj8jDyfkV4xVc5O8LT3-17" value="Output" style="swimlane;childLayout=stackLayout;horizontal=1;startSize=30;horizontalStack=0;rounded=1;fontSize=14;fontStyle=0;strokeWidth=2;resizeParent=0;resizeLast=1;shadow=0;dashed=0;align=center;" vertex="1" parent="1">
          <mxGeometry x="17.5" y="430" width="160" height="180" as="geometry" />
        </mxCell>
        <mxCell id="LZj8jDyfkV4xVc5O8LT3-18" value="int32 ReviewID&#xa;String Message&#xa;&quot;Review successfully sent&quot;" style="align=left;strokeColor=none;fillColor=none;spacingLeft=4;fontSize=12;verticalAlign=top;resizable=0;rotatable=0;part=1;" vertex="1" parent="LZj8jDyfkV4xVc5O8LT3-17">
          <mxGeometry y="30" width="160" height="150" as="geometry" />
        </mxCell>
        <mxCell id="LZj8jDyfkV4xVc5O8LT3-19" value="Output" style="swimlane;childLayout=stackLayout;horizontal=1;startSize=30;horizontalStack=0;rounded=1;fontSize=14;fontStyle=0;strokeWidth=2;resizeParent=0;resizeLast=1;shadow=0;dashed=0;align=center;" vertex="1" parent="1">
          <mxGeometry x="340" y="430" width="160" height="180" as="geometry" />
        </mxCell>
        <mxCell id="LZj8jDyfkV4xVc5O8LT3-20" value="String Message&#xa;&quot;Review successfully edited&quot;" style="align=left;strokeColor=none;fillColor=none;spacingLeft=4;fontSize=12;verticalAlign=top;resizable=0;rotatable=0;part=1;" vertex="1" parent="LZj8jDyfkV4xVc5O8LT3-19">
          <mxGeometry y="30" width="160" height="150" as="geometry" />
        </mxCell>
        <mxCell id="LZj8jDyfkV4xVc5O8LT3-21" value="Output" style="swimlane;childLayout=stackLayout;horizontal=1;startSize=30;horizontalStack=0;rounded=1;fontSize=14;fontStyle=0;strokeWidth=2;resizeParent=0;resizeLast=1;shadow=0;dashed=0;align=center;" vertex="1" parent="1">
          <mxGeometry x="650" y="430" width="160" height="180" as="geometry" />
        </mxCell>
        <mxCell id="LZj8jDyfkV4xVc5O8LT3-22" value="String Message" style="align=left;strokeColor=none;fillColor=none;spacingLeft=4;fontSize=12;verticalAlign=top;resizable=0;rotatable=0;part=1;" vertex="1" parent="LZj8jDyfkV4xVc5O8LT3-21">
          <mxGeometry y="30" width="160" height="150" as="geometry" />
        </mxCell>
        <mxCell id="LZj8jDyfkV4xVc5O8LT3-23" style="edgeStyle=orthogonalEdgeStyle;rounded=0;orthogonalLoop=1;jettySize=auto;html=1;exitX=0.5;exitY=1;exitDx=0;exitDy=0;entryX=0.5;entryY=0;entryDx=0;entryDy=0;" edge="1" parent="1" source="LZj8jDyfkV4xVc5O8LT3-12" target="LZj8jDyfkV4xVc5O8LT3-17">
          <mxGeometry relative="1" as="geometry" />
        </mxCell>
        <mxCell id="LZj8jDyfkV4xVc5O8LT3-24" style="edgeStyle=orthogonalEdgeStyle;rounded=0;orthogonalLoop=1;jettySize=auto;html=1;exitX=0.5;exitY=1;exitDx=0;exitDy=0;entryX=0.5;entryY=0;entryDx=0;entryDy=0;" edge="1" parent="1" source="LZj8jDyfkV4xVc5O8LT3-14" target="LZj8jDyfkV4xVc5O8LT3-19">
          <mxGeometry relative="1" as="geometry" />
        </mxCell>
        <mxCell id="LZj8jDyfkV4xVc5O8LT3-25" style="edgeStyle=orthogonalEdgeStyle;rounded=0;orthogonalLoop=1;jettySize=auto;html=1;exitX=0.5;exitY=1;exitDx=0;exitDy=0;entryX=0.5;entryY=0;entryDx=0;entryDy=0;" edge="1" parent="1" source="LZj8jDyfkV4xVc5O8LT3-16" target="LZj8jDyfkV4xVc5O8LT3-21">
          <mxGeometry relative="1" as="geometry" />
        </mxCell>
      </root>
    </mxGraphModel>
  </diagram>
</mxfile>
